<?xml version="1.0" encoding="UTF-8" standalone="no"?>
<!-- Created with Inkscape (http://www.inkscape.org/) -->

<svg
   version="1.1"
   id="svg2"
   width="546.1333"
   height="546.1333"
   viewBox="0 0 546.1333 546.1333"
   xmlns="http://www.w3.org/2000/svg"
   xmlns:svg="http://www.w3.org/2000/svg">
  <defs
     id="defs6" />
  <g
     id="g8">
    <g
       id="g102">
      <path
         style="fill:#f6f7f6;stroke-width:1.06667"
         d="m 192.11045,458.79289 c -5.51556,-1.00417 -6.33442,-3.26997 -3.42593,-9.47972 l 2.44976,-5.23033 -2.36746,-11.1081 c -1.30212,-6.10945 -2.59314,-12.0681 -2.86894,-13.24143 -0.27581,-1.17334 -3.69566,-4.17322 -7.59968,-6.6664 -11.64056,-7.43391 -22.90851,-17.87403 -33.23545,-30.79369 -7.23727,-9.05429 -14.901,-25.07799 -18.92573,-39.57085 -2.69447,-9.70258 -2.89885,-11.89699 -2.90925,-31.23572 -0.01,-18.07581 0.30994,-22.12717 2.44079,-30.93333 3.13607,-12.96055 7.47623,-25.30189 12.17776,-34.62779 l 3.71321,-7.36548 1.31536,5.79663 c 3.83145,16.88469 10.02828,27.3306 34.12858,57.52997 26.61903,33.35555 33.42783,46.826 33.42783,66.13333 0,13.70203 -4.54673,26.17768 -14.26968,39.15422 -4.65721,6.21565 -4.79214,6.96767 -2.623,14.61869 0.84625,2.9849 1.95378,7.10708 2.46118,9.16042 l 0.92252,3.73333 1.44159,-2.66667 c 0.79288,-1.46666 6.3129,-10.10666 12.26672,-19.2 5.95382,-9.09333 11.93198,-18.35801 13.2848,-20.58818 l 2.45968,-4.05485 -3.22252,-8.74514 c -10.73861,-29.14204 -14.15845,-53.90135 -10.48979,-75.94515 4.83024,-29.02341 17.86278,-51.52998 44.21045,-76.34939 16.66764,-15.70085 29.16475,-24.68109 89.26006,-64.14095 14.88865,-9.7762 37.11302,-25.64599 40.66144,-29.03517 0.65712,-0.62763 5.10347,-4.50115 9.88077,-8.60781 13.97942,-12.01702 29.34026,-30.860147 35.43383,-43.466668 1.34699,-2.786667 3.05166,-5.066667 3.78817,-5.066667 1.4416,0 1.49582,0.257827 4.26229,20.266666 2.21541,16.023129 2.51921,60.731939 0.50377,74.133329 -0.70584,4.69333 -1.72964,11.99383 -2.27514,16.22335 -3.23704,25.09896 -15.36908,61.82247 -28.11709,85.10998 -2.89037,5.28 -5.78385,10.57249 -6.42997,11.76108 -3.42514,6.30098 -14.27218,21.45634 -21.73811,30.37225 -21.47157,25.64162 -48.10678,46.30194 -79.70329,61.82405 -8.21333,4.03488 -17.09333,8.11935 -19.73333,9.07658 -12.94229,4.69277 -34.23219,11.47227 -40.51246,12.90069 l -7.03452,1.59996 -8.49318,14.57913 c -4.67124,8.01852 -9.8661,17.00323 -11.54412,19.96602 -1.67803,2.96279 -3.95803,6.66099 -5.06667,8.21822 -1.10864,1.55723 -2.01571,3.11984 -2.01571,3.47246 0,0.35263 -1.79864,3.51853 -3.99697,7.03534 -4.18095,6.68853 -4.44512,6.80967 -11.89257,5.45379 z m 5.15741,-85.83558 c 0.0575,-10.17291 -0.32963,-12.75864 -3.19419,-21.33333 -1.79281,-5.36653 -4.96358,-12.87733 -7.04617,-16.69067 -3.54857,-6.49761 -13.89212,-21.33333 -14.87372,-21.33333 -0.24434,0 1.44428,3.75614 3.7525,8.34697 5.39155,10.72326 11.45443,26.25812 14.22287,36.44314 1.64016,6.03408 2.20521,11.52076 2.29069,22.24292 l 0.11348,14.23305 2.33454,-5.16638 c 1.9219,-4.2532 2.3461,-7.21246 2.4,-16.74237 z m 46.33366,-50.1329 c 4.95089,-14.77501 8.68387,-22.79613 17.69635,-38.02443 13.65576,-23.07398 32.02506,-45.62291 58.43699,-71.73333 8.15982,-8.06666 14.65845,-14.66666 14.44142,-14.66666 -0.42268,0 -8.00231,4.09846 -10.85427,5.86913 -26.16251,16.24321 -52.20409,41.27018 -69.02233,66.33317 -7.02471,10.46839 -14.9142,27.10751 -18.11157,38.19769 -3.66557,12.71416 -4.0696,30.26412 -0.9679,42.0438 l 2.08289,7.91046 1.2098,-12.17713 c 0.86636,-8.72018 2.31096,-15.46331 5.08862,-23.7527 z"
         id="path106" />
      <path
         style="fill:#16531e;stroke-width:1.06667"
         d="M 0,273.06665 V 9.9999999e-7 H 273.06665 546.1333 V 273.06665 546.1333 H 273.06665 0 Z M 204.00302,453.3391 c 2.19833,-3.51681 3.99697,-6.68271 3.99697,-7.03534 0,-0.35262 0.90707,-1.91523 2.01571,-3.47246 1.10864,-1.55723 3.38864,-5.25543 5.06667,-8.21822 1.67802,-2.96279 6.87288,-11.9475 11.54412,-19.96602 l 8.49318,-14.57913 7.03452,-1.59996 c 6.28027,-1.42842 27.57017,-8.20792 40.51246,-12.90069 2.64,-0.95723 11.52,-5.0417 19.73333,-9.07658 31.59651,-15.52211 58.23172,-36.18243 79.70329,-61.82405 7.46593,-8.91591 18.31297,-24.07127 21.73811,-30.37225 0.64612,-1.18859 3.5396,-6.48108 6.42997,-11.76108 12.74801,-23.28751 24.88005,-60.01102 28.11709,-85.10998 0.5455,-4.22952 1.5693,-11.53002 2.27514,-16.22335 2.01544,-13.40139 1.71164,-58.1102 -0.50377,-74.13333 C 437.39334,77.05782 437.33912,76.8 435.89752,76.8 c -0.73651,0 -2.44118,2.28 -3.78817,5.06666 -6.09357,12.60652 -21.45441,31.44965 -35.43383,43.46667 -4.7773,4.10666 -9.22365,7.98018 -9.88077,8.60781 -3.54842,3.38918 -25.77279,19.25897 -40.66144,29.03517 -60.09531,39.45986 -72.59242,48.4401 -89.26006,64.14095 -26.34767,24.81941 -39.38021,47.32598 -44.21045,76.34939 -3.66866,22.0438 -0.24882,46.80311 10.48979,75.94515 l 3.22252,8.74514 -2.45968,4.05485 c -1.35282,2.23017 -7.33098,11.49485 -13.2848,20.58818 -5.95382,9.09334 -11.47384,17.73334 -12.26672,19.2 l -1.44159,2.66667 -0.92252,-3.73333 c -0.5074,-2.05334 -1.61493,-6.17552 -2.46118,-9.16042 -2.16914,-7.65102 -2.03421,-8.40304 2.623,-14.61869 9.72295,-12.97654 14.26968,-25.45219 14.26968,-39.15422 0,-19.30733 -6.8088,-32.77778 -33.42783,-66.13333 -24.1003,-30.19937 -30.29713,-40.64528 -34.12858,-57.52997 l -1.31536,-5.79663 -3.71321,7.36548 c -4.70153,9.3259 -9.04169,21.66724 -12.17776,34.62779 -2.13085,8.80616 -2.45052,12.85752 -2.44079,30.93333 0.0107,19.33873 0.21478,21.53314 2.90925,31.23572 4.02473,14.49286 11.68846,30.51656 18.92573,39.57085 10.32694,12.91966 21.59489,23.35978 33.23545,30.79369 3.90402,2.49318 7.32387,5.49306 7.59968,6.6664 0.2758,1.17333 1.56682,7.13198 2.86894,13.24143 l 2.36746,11.1081 -2.44976,5.23033 c -2.90849,6.20975 -2.08963,8.47555 3.42593,9.47972 7.44745,1.35588 7.71162,1.23474 11.89257,-5.45379 z m -11.58318,-72.70609 c -0.0854,-10.72216 -0.65053,-16.20884 -2.29069,-22.24292 -2.76844,-10.18502 -8.83132,-25.71988 -14.22287,-36.44314 -2.30822,-4.59083 -3.99684,-8.34697 -3.7525,-8.34697 0.9816,0 11.32515,14.83572 14.87372,21.33333 2.08259,3.81334 5.25336,11.32414 7.04617,16.69067 2.86456,8.57469 3.25172,11.16042 3.19419,21.33333 -0.0539,9.52991 -0.4781,12.48917 -2.4,16.74237 l -2.33454,5.16638 z m 42.80037,-29.78923 c -3.1017,-11.77968 -2.69767,-29.32964 0.9679,-42.0438 4.65817,-16.15701 14.47803,-34.405 27.90361,-51.85254 10.91451,-14.18423 34.09348,-35.67475 50.57493,-46.89086 8.9839,-6.1138 18.26087,-11.65659 19.50963,-11.65659 0.21703,0 -6.2816,6.6 -14.44142,14.66666 -49.99567,49.42493 -77.33236,94.36024 -81.22196,133.51046 l -1.2098,12.17713 z"
         id="path104" />
    </g>
  </g>
</svg>
